<?xml version="1.0" encoding="utf-8"?>
<!-- Generator: Adobe Illustrator 25.3.1, SVG Export Plug-In . SVG Version: 6.00 Build 0)  -->
<svg version="1.1" id="图层_1" xmlns="http://www.w3.org/2000/svg" xmlns:xlink="http://www.w3.org/1999/xlink" x="0px" y="0px"
	 viewBox="0 0 32 32" style="enable-background:new 0 0 32 32;" xml:space="preserve" width="32" height="32">
<style type="text/css">
	.st0{fill:#E03B32;}
	.st1{fill:#F5F5F5;}
</style>
<circle class="st0" cx="16" cy="16" r="16"/>
<path class="st1" d="M15.05,10.4c0,0,0-0.26-0.7-0.26c-0.7,0-0.7,0.26-0.7,0.26v10.9c0,0,0,0.28,0.7,0.28c0.7,0,0.7-0.28,0.7-0.28
	V10.4z"/>
<path class="st1" d="M18.35,10.4c0,0,0-0.26-0.7-0.26c-0.7,0-0.7,0.26-0.7,0.26v10.9c0,0,0,0.28,0.7,0.28c0.7,0,0.7-0.28,0.7-0.28
	V10.4z"/>
</svg>
