<?xml version="1.0" encoding="utf-8"?>
<!-- Generator: Adobe Illustrator 25.3.1, SVG Export Plug-In . SVG Version: 6.00 Build 0)  -->
<svg version="1.1" id="图层_1" xmlns="http://www.w3.org/2000/svg" xmlns:xlink="http://www.w3.org/1999/xlink" x="0px" y="0px"
	 viewBox="0 0 16 16" style="enable-background:new 0 0 16 16;" xml:space="preserve">
<style type="text/css">
	.st0{fill:#C03B32;}
	.st1{fill:#F5F5F5;}
</style>
<circle class="st0" cx="8" cy="8" r="8"/>
<g>
	<path class="st1" d="M7.1,5.2c0,0,0-0.1-0.4-0.1C6.2,5,6.2,5.2,6.2,5.2v5.5c0,0,0,0.1,0.5,0.1c0.4,0,0.4-0.1,0.4-0.1V5.2z"/>
	<path class="st1" d="M9.8,5.2c0,0,0-0.1-0.4-0.1C8.9,5,8.9,5.2,8.9,5.2v5.5c0,0,0,0.1,0.5,0.1c0.4,0,0.4-0.1,0.4-0.1V5.2z"/>
</g>
</svg>
