<?xml version="1.0" encoding="utf-8"?>
<!-- Generator: Adobe Illustrator 25.3.1, SVG Export Plug-In . SVG Version: 6.00 Build 0)  -->
<svg version="1.1" id="图层_1" xmlns="http://www.w3.org/2000/svg" xmlns:xlink="http://www.w3.org/1999/xlink" x="0px" y="0px"
	 viewBox="0 0 16 16" style="enable-background:new 0 0 16 16;" xml:space="preserve" width="16" height="16">
<style type="text/css">
	.st0{fill:none;stroke:#E83828;stroke-miterlimit:10;}
	.st1{fill:#C30D23;stroke:#C30D23;stroke-width:1;stroke-miterlimit:9.9999;}
	.st2{fill:none;stroke:#E83828;stroke-width:3;stroke-miterlimit:10;}
	.st3{fill:#EA5514;}
</style>
<line class="st0" x1="13.8" y1="1.5" x2="13.8" y2="12.5"/>
<line class="st0" x1="4.7" y1="2.5" x2="4.7" y2="13.6"/>
<ellipse transform="matrix(0.9928 -0.12 0.12 0.9928 -1.614 0.485)" class="st1" cx="3.2" cy="13.6" rx="1.5" ry="1.3"/>
<line class="st2" x1="4.5" y1="5.6" x2="14.1" y2="4.9"/>
<path class="st3" d="M4.2,2.2c0,0,0-0.4,0.4-0.5c0.3-0.1,9.3-0.7,9.3-0.7s0.4-0.1,0.4,0.4c0,0.5,0,2.1,0,2.1L4.2,4.3"/>
<ellipse transform="matrix(0.9928 -0.12 0.12 0.9928 -1.4138 1.5677)" class="st1" cx="12.3" cy="12.5" rx="1.5" ry="1.3"/>
</svg>
