<?xml version="1.0" encoding="utf-8"?>
<!-- Generator: Adobe Illustrator 25.3.1, SVG Export Plug-In . SVG Version: 6.00 Build 0)  -->
<svg version="1.1" id="图层_1" xmlns="http://www.w3.org/2000/svg" xmlns:xlink="http://www.w3.org/1999/xlink" x="0px" y="0px"
	 viewBox="0 0 32 32" style="enable-background:new 0 0 32 32;" xml:space="preserve">
<style type="text/css">
	.st0{fill:none;stroke:#DDDDDD;stroke-width:2;stroke-linecap:round;stroke-miterlimit:10;}
	.st1{fill:#DDDDDD;}
</style>
<g>
	<g>
		<g>
			<path class="st0" d="M1.6,22.2h7c2,0,4-1,5.3-2.7l5.5-7.1c1.3-1.6,3.1-2.6,5-2.6h5.7"/>
			<g>
				<polygon class="st1" points="25.7,15.3 24.8,14.3 29.6,9.8 24.8,5.3 25.7,4.3 31.6,9.8 				"/>
			</g>
		</g>
	</g>
	<g>
		<g>
			<path class="st0" d="M1.6,9.8h7c2,0,4,1,5.3,2.7l5.5,7.1c1.3,1.6,3.1,2.6,5,2.6h5.7"/>
			<g>
				<polygon class="st1" points="25.7,27.7 24.8,26.7 29.6,22.2 24.8,17.7 25.7,16.7 31.6,22.2 				"/>
			</g>
		</g>
	</g>
</g>
</svg>
